<svg xmlns="http://www.w3.org/2000/svg" viewBox="0 0 162.69 162.59"><defs><style>.cls-1{fill:#59935B;}</style></defs><g id="trim_area" data-name="trim area"><circle class="cls-1" cx="82.73" cy="28.47" r="13.98"/><path class="cls-1" d="M103.66,125.59h-44a3,3,0,0,1-3-2.84l0-36.63-4.49.18a3,3,0,0,1-3.06-3V67.72C49,54.47,53.41,44,66.69,44H68.6L70,45.36a16.54,16.54,0,0,0,23.38,0L94.68,44h1.91c13.25,0,16.65,10.5,16.7,23.74V83a2.77,2.77,0,0,1-2.73,3.09h-3.9v36.6A3,3,0,0,1,103.66,125.59Z"/><circle class="cls-1" cx="132.13" cy="14.36" r="13.98"/><circle class="cls-1" cx="33.69" cy="13.98" r="13.98"/><path class="cls-1" d="M146,29.9h-1.91l-1.35,1.35a16.53,16.53,0,0,1-23.38,0L118,29.9h-1.91c-7,0-11.51,2.9-14.22,7.58,9.27,1.75,18.34,8.93,18.42,30.25V82.94a10.17,10.17,0,0,1-2.77,7.26,9.51,9.51,0,0,1-3.86,2.44v18.84h39.4a3,3,0,0,0,3-2.86V72l3.9,0a2.77,2.77,0,0,0,2.73-3.1V53.65C162.64,40.41,159.24,29.9,146,29.9Z"/><path class="cls-1" d="M44.94,90.35A10,10,0,0,1,42,83.23V67.72c0-22.32,11.18-28.6,19.4-30.21-2.43-4.91-6.71-8-13.87-8H45.65L44.3,30.87a16.53,16.53,0,0,1-23.38,0l-1.35-1.35H17.66C4.38,29.52,0,40,0,53.24V68.79a3,3,0,0,0,3.06,3l4.49-.18,0,36.64a3,3,0,0,0,3,2.83h39V93A9.94,9.94,0,0,1,44.94,90.35Z"/></g></svg>
