<svg id="trim_area" data-name="trim area" xmlns="http://www.w3.org/2000/svg" viewBox="0 0 192 192"><defs><style>.cls-1{fill:#467AAC;}</style></defs><path class="cls-1" d="M73.92,111.76l8.49,8.48L30.16,171.13a3,3,0,0,1-4.24,0l-4.24-4.24a3,3,0,0,1,0-4.24Z"/><path class="cls-1" d="M157.38,33.14a58.52,58.52,0,1,0,0,82.76A58.53,58.53,0,0,0,157.38,33.14ZM83.11,107.41a46.5,46.5,0,1,1,65.76,0A46.55,46.55,0,0,1,83.11,107.41Z"/><path class="cls-1" d="M140.29,55.64a3,3,0,0,1-4.07.14,31.55,31.55,0,0,0-40.44,0,3,3,0,0,1-4.07-.14l-2.85-2.85A3,3,0,0,1,89,48.42a41.57,41.57,0,0,1,54,0,3,3,0,0,1,.13,4.37Z"/></svg>
