<svg xmlns="http://www.w3.org/2000/svg" viewBox="0 0 152.47 152.47"><defs><style>.cls-1{fill:#61589C;}</style></defs><g id="Layer_1" data-name="Layer 1"><path class="cls-1" d="M76.24,152.47a76.24,76.24,0,1,1,76.23-76.24A76.32,76.32,0,0,1,76.24,152.47ZM76.24,10a66.24,66.24,0,1,0,66.23,66.23A66.31,66.31,0,0,0,76.24,10Z"/><path class="cls-1" d="M76.49,19.71A5,5,0,0,1,72,16.88L68.33,9.27A5,5,0,0,1,72.84,2.1h7.31a5,5,0,0,1,4.51,7.17L81,16.88A5,5,0,0,1,76.49,19.71Z"/><path class="cls-1" d="M79.89,150.15H72.57a5,5,0,0,1-4.5-7.17l3.66-7.61a5,5,0,0,1,4.51-2.84h0a5,5,0,0,1,4.51,2.84L84.4,143a5,5,0,0,1-4.51,7.17Z"/><path class="cls-1" d="M7.34,84.65a5,5,0,0,1-5-5V72.34a5,5,0,0,1,7.17-4.51l7.61,3.66a5,5,0,0,1,0,9L9.51,84.16A5,5,0,0,1,7.34,84.65Z"/><path class="cls-1" d="M145.38,84.91a5,5,0,0,1-2.16-.49l-7.61-3.66a5,5,0,0,1,0-9l7.61-3.66a5,5,0,0,1,7.17,4.51v7.31a5,5,0,0,1-2.33,4.24A5.1,5.1,0,0,1,145.38,84.91Z"/><path class="cls-1" d="M107,46.93a5,5,0,0,0-5.19-1.18L62.7,59.48l-.15.06-.17.07a4.73,4.73,0,0,0-.74.39l-.1.07a4.8,4.8,0,0,0-1.31,1.31.36.36,0,0,0-.07.1,4.78,4.78,0,0,0-.4.74,1.34,1.34,0,0,1-.07.18l-.06.14L45.91,101.66a5,5,0,0,0,4.71,6.66,4.76,4.76,0,0,0,1.66-.29L91.4,94.31l.14-.06.18-.07a4.78,4.78,0,0,0,.74-.4l.1-.07a4.8,4.8,0,0,0,1.31-1.31l.07-.09a5.34,5.34,0,0,0,.39-.75,1.22,1.22,0,0,0,.07-.17.94.94,0,0,0,.06-.15l13.73-39.12A5,5,0,0,0,107,46.93ZM68.55,67.34,85.15,85.9,58.79,95.15Z"/></g></svg>
