<svg id="trim_area" data-name="trim area" xmlns="http://www.w3.org/2000/svg" viewBox="0 0 152 152.51"><defs><style>.cls-1{fill:#983E82;}</style></defs><path class="cls-1" d="M99,0h6a3,3,0,0,1,3,3V45.05a0,0,0,0,1,0,0H96a0,0,0,0,1,0,0V3A3,3,0,0,1,99,0Z"/><path class="cls-1" d="M98.79,34.25l-25.85,51a3.11,3.11,0,0,1-5.35.34l-17.33-23a3.11,3.11,0,0,0-5.16,0L.53,147.68a3.11,3.11,0,0,0,2.59,4.83H148.89a3.11,3.11,0,0,0,2.79-4.48L104.36,34.28A3.11,3.11,0,0,0,98.79,34.25Zm-50,47.25,23.06,28.85L101.47,51.9l35.75,90.24H16.67Z"/><path class="cls-1" d="M132.89,33l-30.44.25L102.34,5.1,132.89,5a3,3,0,0,1,3,3V30A3,3,0,0,1,132.89,33Z"/></svg>
